<mxfile host="app.diagrams.net" modified="2022-11-20T23:41:04.385Z" agent="5.0 (Windows)" etag="1WIR_hgC4UoBI3XFoCEn" version="20.5.3" type="github">
  <diagram id="6T5PZeYrQpzY9YffS1K_" name="Page-1">
    <mxGraphModel dx="1422" dy="744" grid="1" gridSize="10" guides="1" tooltips="1" connect="1" arrows="1" fold="1" page="1" pageScale="1" pageWidth="850" pageHeight="1100" math="0" shadow="0">
      <root>
        <mxCell id="0" />
        <mxCell id="1" parent="0" />
        <mxCell id="oFuke4j55mWS_64PKyyQ-92" style="edgeStyle=orthogonalEdgeStyle;rounded=0;orthogonalLoop=1;jettySize=auto;html=1;exitX=1;exitY=0.5;exitDx=0;exitDy=0;entryX=0;entryY=0.5;entryDx=0;entryDy=0;" edge="1" parent="1" source="oFuke4j55mWS_64PKyyQ-1" target="oFuke4j55mWS_64PKyyQ-91">
          <mxGeometry relative="1" as="geometry" />
        </mxCell>
        <mxCell id="oFuke4j55mWS_64PKyyQ-1" value="Stock Price DataFrame" style="swimlane;whiteSpace=wrap;html=1;fillColor=#d5e8d4;strokeColor=#82b366;gradientColor=none;swimlaneFillColor=none;rounded=0;arcSize=8;sketch=0;glass=0;shadow=0;labelBackgroundColor=none;labelBorderColor=none;" vertex="1" parent="1">
          <mxGeometry x="640" y="40" width="560" height="200" as="geometry" />
        </mxCell>
        <mxCell id="oFuke4j55mWS_64PKyyQ-2" value="datetime" style="swimlane;fontStyle=0;childLayout=stackLayout;horizontal=1;startSize=30;horizontalStack=0;resizeParent=1;resizeParentMax=0;resizeLast=0;collapsible=1;marginBottom=0;whiteSpace=wrap;html=1;fillColor=#dae8fc;strokeColor=#6c8ebf;" vertex="1" parent="oFuke4j55mWS_64PKyyQ-1">
          <mxGeometry x="120" y="30" width="190" height="120" as="geometry" />
        </mxCell>
        <mxCell id="oFuke4j55mWS_64PKyyQ-3" value="datetime(2022, 01, 01, 08:45:01)" style="text;strokeColor=none;fillColor=none;align=left;verticalAlign=middle;spacingLeft=4;spacingRight=4;overflow=hidden;points=[[0,0.5],[1,0.5]];portConstraint=eastwest;rotatable=0;whiteSpace=wrap;html=1;" vertex="1" parent="oFuke4j55mWS_64PKyyQ-2">
          <mxGeometry y="30" width="190" height="30" as="geometry" />
        </mxCell>
        <mxCell id="oFuke4j55mWS_64PKyyQ-4" value="datetime(2022, 01, 01, 08:45:02)" style="text;strokeColor=none;fillColor=none;align=left;verticalAlign=middle;spacingLeft=4;spacingRight=4;overflow=hidden;points=[[0,0.5],[1,0.5]];portConstraint=eastwest;rotatable=0;whiteSpace=wrap;html=1;" vertex="1" parent="oFuke4j55mWS_64PKyyQ-2">
          <mxGeometry y="60" width="190" height="30" as="geometry" />
        </mxCell>
        <mxCell id="oFuke4j55mWS_64PKyyQ-5" value="datetime(2022, 01, 01, 08:45:03)" style="text;strokeColor=none;fillColor=none;align=left;verticalAlign=middle;spacingLeft=4;spacingRight=4;overflow=hidden;points=[[0,0.5],[1,0.5]];portConstraint=eastwest;rotatable=0;whiteSpace=wrap;html=1;" vertex="1" parent="oFuke4j55mWS_64PKyyQ-2">
          <mxGeometry y="90" width="190" height="30" as="geometry" />
        </mxCell>
        <mxCell id="oFuke4j55mWS_64PKyyQ-10" value="open" style="swimlane;fontStyle=0;childLayout=stackLayout;horizontal=1;startSize=30;horizontalStack=0;resizeParent=1;resizeParentMax=0;resizeLast=0;collapsible=1;marginBottom=0;whiteSpace=wrap;html=1;fillColor=#dae8fc;strokeColor=#6c8ebf;" vertex="1" parent="oFuke4j55mWS_64PKyyQ-1">
          <mxGeometry x="310" y="30" width="60" height="120" as="geometry" />
        </mxCell>
        <mxCell id="oFuke4j55mWS_64PKyyQ-11" value="34.67" style="text;strokeColor=none;fillColor=none;align=left;verticalAlign=middle;spacingLeft=4;spacingRight=4;overflow=hidden;points=[[0,0.5],[1,0.5]];portConstraint=eastwest;rotatable=0;whiteSpace=wrap;html=1;" vertex="1" parent="oFuke4j55mWS_64PKyyQ-10">
          <mxGeometry y="30" width="60" height="30" as="geometry" />
        </mxCell>
        <mxCell id="oFuke4j55mWS_64PKyyQ-12" value="34.79" style="text;strokeColor=none;fillColor=none;align=left;verticalAlign=middle;spacingLeft=4;spacingRight=4;overflow=hidden;points=[[0,0.5],[1,0.5]];portConstraint=eastwest;rotatable=0;whiteSpace=wrap;html=1;" vertex="1" parent="oFuke4j55mWS_64PKyyQ-10">
          <mxGeometry y="60" width="60" height="30" as="geometry" />
        </mxCell>
        <mxCell id="oFuke4j55mWS_64PKyyQ-13" value="33.51" style="text;strokeColor=none;fillColor=none;align=left;verticalAlign=middle;spacingLeft=4;spacingRight=4;overflow=hidden;points=[[0,0.5],[1,0.5]];portConstraint=eastwest;rotatable=0;whiteSpace=wrap;html=1;" vertex="1" parent="oFuke4j55mWS_64PKyyQ-10">
          <mxGeometry y="90" width="60" height="30" as="geometry" />
        </mxCell>
        <mxCell id="oFuke4j55mWS_64PKyyQ-14" value="high" style="swimlane;fontStyle=0;childLayout=stackLayout;horizontal=1;startSize=30;horizontalStack=0;resizeParent=1;resizeParentMax=0;resizeLast=0;collapsible=1;marginBottom=0;whiteSpace=wrap;html=1;fillColor=#dae8fc;strokeColor=#6c8ebf;" vertex="1" parent="oFuke4j55mWS_64PKyyQ-1">
          <mxGeometry x="370" y="30" width="60" height="120" as="geometry" />
        </mxCell>
        <mxCell id="oFuke4j55mWS_64PKyyQ-15" value="35.12" style="text;strokeColor=none;fillColor=none;align=left;verticalAlign=middle;spacingLeft=4;spacingRight=4;overflow=hidden;points=[[0,0.5],[1,0.5]];portConstraint=eastwest;rotatable=0;whiteSpace=wrap;html=1;" vertex="1" parent="oFuke4j55mWS_64PKyyQ-14">
          <mxGeometry y="30" width="60" height="30" as="geometry" />
        </mxCell>
        <mxCell id="oFuke4j55mWS_64PKyyQ-16" value="35.01" style="text;strokeColor=none;fillColor=none;align=left;verticalAlign=middle;spacingLeft=4;spacingRight=4;overflow=hidden;points=[[0,0.5],[1,0.5]];portConstraint=eastwest;rotatable=0;whiteSpace=wrap;html=1;" vertex="1" parent="oFuke4j55mWS_64PKyyQ-14">
          <mxGeometry y="60" width="60" height="30" as="geometry" />
        </mxCell>
        <mxCell id="oFuke4j55mWS_64PKyyQ-17" value="34.21" style="text;strokeColor=none;fillColor=none;align=left;verticalAlign=middle;spacingLeft=4;spacingRight=4;overflow=hidden;points=[[0,0.5],[1,0.5]];portConstraint=eastwest;rotatable=0;whiteSpace=wrap;html=1;" vertex="1" parent="oFuke4j55mWS_64PKyyQ-14">
          <mxGeometry y="90" width="60" height="30" as="geometry" />
        </mxCell>
        <mxCell id="oFuke4j55mWS_64PKyyQ-18" value="low" style="swimlane;fontStyle=0;childLayout=stackLayout;horizontal=1;startSize=30;horizontalStack=0;resizeParent=1;resizeParentMax=0;resizeLast=0;collapsible=1;marginBottom=0;whiteSpace=wrap;html=1;fillColor=#dae8fc;strokeColor=#6c8ebf;" vertex="1" parent="oFuke4j55mWS_64PKyyQ-1">
          <mxGeometry x="430" y="30" width="60" height="120" as="geometry" />
        </mxCell>
        <mxCell id="oFuke4j55mWS_64PKyyQ-19" value="34.67" style="text;strokeColor=none;fillColor=none;align=left;verticalAlign=middle;spacingLeft=4;spacingRight=4;overflow=hidden;points=[[0,0.5],[1,0.5]];portConstraint=eastwest;rotatable=0;whiteSpace=wrap;html=1;" vertex="1" parent="oFuke4j55mWS_64PKyyQ-18">
          <mxGeometry y="30" width="60" height="30" as="geometry" />
        </mxCell>
        <mxCell id="oFuke4j55mWS_64PKyyQ-20" value="32.34" style="text;strokeColor=none;fillColor=none;align=left;verticalAlign=middle;spacingLeft=4;spacingRight=4;overflow=hidden;points=[[0,0.5],[1,0.5]];portConstraint=eastwest;rotatable=0;whiteSpace=wrap;html=1;" vertex="1" parent="oFuke4j55mWS_64PKyyQ-18">
          <mxGeometry y="60" width="60" height="30" as="geometry" />
        </mxCell>
        <mxCell id="oFuke4j55mWS_64PKyyQ-21" value="30.23" style="text;strokeColor=none;fillColor=none;align=left;verticalAlign=middle;spacingLeft=4;spacingRight=4;overflow=hidden;points=[[0,0.5],[1,0.5]];portConstraint=eastwest;rotatable=0;whiteSpace=wrap;html=1;" vertex="1" parent="oFuke4j55mWS_64PKyyQ-18">
          <mxGeometry y="90" width="60" height="30" as="geometry" />
        </mxCell>
        <mxCell id="oFuke4j55mWS_64PKyyQ-6" value="date_eod" style="swimlane;fontStyle=0;childLayout=stackLayout;horizontal=1;startSize=30;horizontalStack=0;resizeParent=1;resizeParentMax=0;resizeLast=0;collapsible=1;marginBottom=0;whiteSpace=wrap;html=1;fillColor=#dae8fc;strokeColor=#6c8ebf;" vertex="1" parent="1">
          <mxGeometry x="650" y="70" width="110" height="120" as="geometry" />
        </mxCell>
        <mxCell id="oFuke4j55mWS_64PKyyQ-7" value="date(2022,01,01)" style="text;strokeColor=none;fillColor=none;align=left;verticalAlign=middle;spacingLeft=4;spacingRight=4;overflow=hidden;points=[[0,0.5],[1,0.5]];portConstraint=eastwest;rotatable=0;whiteSpace=wrap;html=1;" vertex="1" parent="oFuke4j55mWS_64PKyyQ-6">
          <mxGeometry y="30" width="110" height="30" as="geometry" />
        </mxCell>
        <mxCell id="oFuke4j55mWS_64PKyyQ-8" value="date(2022,01,01)" style="text;strokeColor=none;fillColor=none;align=left;verticalAlign=middle;spacingLeft=4;spacingRight=4;overflow=hidden;points=[[0,0.5],[1,0.5]];portConstraint=eastwest;rotatable=0;whiteSpace=wrap;html=1;" vertex="1" parent="oFuke4j55mWS_64PKyyQ-6">
          <mxGeometry y="60" width="110" height="30" as="geometry" />
        </mxCell>
        <mxCell id="oFuke4j55mWS_64PKyyQ-9" value="date(2022,01,01)" style="text;strokeColor=none;fillColor=none;align=left;verticalAlign=middle;spacingLeft=4;spacingRight=4;overflow=hidden;points=[[0,0.5],[1,0.5]];portConstraint=eastwest;rotatable=0;whiteSpace=wrap;html=1;" vertex="1" parent="oFuke4j55mWS_64PKyyQ-6">
          <mxGeometry y="90" width="110" height="30" as="geometry" />
        </mxCell>
        <mxCell id="oFuke4j55mWS_64PKyyQ-22" value="close" style="swimlane;fontStyle=0;childLayout=stackLayout;horizontal=1;startSize=30;horizontalStack=0;resizeParent=1;resizeParentMax=0;resizeLast=0;collapsible=1;marginBottom=0;whiteSpace=wrap;html=1;fillColor=#dae8fc;strokeColor=#6c8ebf;" vertex="1" parent="1">
          <mxGeometry x="1130" y="70" width="60" height="120" as="geometry" />
        </mxCell>
        <mxCell id="oFuke4j55mWS_64PKyyQ-23" value="34.79" style="text;strokeColor=none;fillColor=none;align=left;verticalAlign=middle;spacingLeft=4;spacingRight=4;overflow=hidden;points=[[0,0.5],[1,0.5]];portConstraint=eastwest;rotatable=0;whiteSpace=wrap;html=1;" vertex="1" parent="oFuke4j55mWS_64PKyyQ-22">
          <mxGeometry y="30" width="60" height="30" as="geometry" />
        </mxCell>
        <mxCell id="oFuke4j55mWS_64PKyyQ-24" value="33.51" style="text;strokeColor=none;fillColor=none;align=left;verticalAlign=middle;spacingLeft=4;spacingRight=4;overflow=hidden;points=[[0,0.5],[1,0.5]];portConstraint=eastwest;rotatable=0;whiteSpace=wrap;html=1;" vertex="1" parent="oFuke4j55mWS_64PKyyQ-22">
          <mxGeometry y="60" width="60" height="30" as="geometry" />
        </mxCell>
        <mxCell id="oFuke4j55mWS_64PKyyQ-25" value="32.27" style="text;strokeColor=none;fillColor=none;align=left;verticalAlign=middle;spacingLeft=4;spacingRight=4;overflow=hidden;points=[[0,0.5],[1,0.5]];portConstraint=eastwest;rotatable=0;whiteSpace=wrap;html=1;" vertex="1" parent="oFuke4j55mWS_64PKyyQ-22">
          <mxGeometry y="90" width="60" height="30" as="geometry" />
        </mxCell>
        <mxCell id="oFuke4j55mWS_64PKyyQ-94" style="edgeStyle=orthogonalEdgeStyle;rounded=0;orthogonalLoop=1;jettySize=auto;html=1;exitX=1;exitY=0.5;exitDx=0;exitDy=0;entryX=0;entryY=0.5;entryDx=0;entryDy=0;" edge="1" parent="1" source="oFuke4j55mWS_64PKyyQ-26" target="oFuke4j55mWS_64PKyyQ-91">
          <mxGeometry relative="1" as="geometry" />
        </mxCell>
        <mxCell id="oFuke4j55mWS_64PKyyQ-26" value="Option Chain DataFrame" style="swimlane;whiteSpace=wrap;html=1;fillColor=#d5e8d4;strokeColor=#82b366;" vertex="1" parent="1">
          <mxGeometry x="40" y="280" width="1160" height="200" as="geometry" />
        </mxCell>
        <mxCell id="oFuke4j55mWS_64PKyyQ-27" value="datetime" style="swimlane;fontStyle=0;childLayout=stackLayout;horizontal=1;startSize=30;horizontalStack=0;resizeParent=1;resizeParentMax=0;resizeLast=0;collapsible=1;marginBottom=0;whiteSpace=wrap;html=1;fillColor=#dae8fc;strokeColor=#6c8ebf;" vertex="1" parent="oFuke4j55mWS_64PKyyQ-26">
          <mxGeometry x="120" y="30" width="190" height="120" as="geometry" />
        </mxCell>
        <mxCell id="oFuke4j55mWS_64PKyyQ-28" value="datetime(2022, 01, 01, 08:45:01)" style="text;strokeColor=none;fillColor=none;align=left;verticalAlign=middle;spacingLeft=4;spacingRight=4;overflow=hidden;points=[[0,0.5],[1,0.5]];portConstraint=eastwest;rotatable=0;whiteSpace=wrap;html=1;" vertex="1" parent="oFuke4j55mWS_64PKyyQ-27">
          <mxGeometry y="30" width="190" height="30" as="geometry" />
        </mxCell>
        <mxCell id="oFuke4j55mWS_64PKyyQ-29" value="datetime(2022, 01, 01, 08:45:01)" style="text;strokeColor=none;fillColor=none;align=left;verticalAlign=middle;spacingLeft=4;spacingRight=4;overflow=hidden;points=[[0,0.5],[1,0.5]];portConstraint=eastwest;rotatable=0;whiteSpace=wrap;html=1;" vertex="1" parent="oFuke4j55mWS_64PKyyQ-27">
          <mxGeometry y="60" width="190" height="30" as="geometry" />
        </mxCell>
        <mxCell id="oFuke4j55mWS_64PKyyQ-30" value="datetime(2022, 01, 01, 08:45:01)" style="text;strokeColor=none;fillColor=none;align=left;verticalAlign=middle;spacingLeft=4;spacingRight=4;overflow=hidden;points=[[0,0.5],[1,0.5]];portConstraint=eastwest;rotatable=0;whiteSpace=wrap;html=1;" vertex="1" parent="oFuke4j55mWS_64PKyyQ-27">
          <mxGeometry y="90" width="190" height="30" as="geometry" />
        </mxCell>
        <mxCell id="oFuke4j55mWS_64PKyyQ-31" value="optionsymbol" style="swimlane;fontStyle=0;childLayout=stackLayout;horizontal=1;startSize=30;horizontalStack=0;resizeParent=1;resizeParentMax=0;resizeLast=0;collapsible=1;marginBottom=0;whiteSpace=wrap;html=1;fillColor=#dae8fc;strokeColor=#6c8ebf;" vertex="1" parent="oFuke4j55mWS_64PKyyQ-26">
          <mxGeometry x="310" y="30" width="90" height="120" as="geometry" />
        </mxCell>
        <mxCell id="oFuke4j55mWS_64PKyyQ-32" value="T34C220317" style="text;strokeColor=none;fillColor=none;align=left;verticalAlign=middle;spacingLeft=4;spacingRight=4;overflow=hidden;points=[[0,0.5],[1,0.5]];portConstraint=eastwest;rotatable=0;whiteSpace=wrap;html=1;" vertex="1" parent="oFuke4j55mWS_64PKyyQ-31">
          <mxGeometry y="30" width="90" height="30" as="geometry" />
        </mxCell>
        <mxCell id="oFuke4j55mWS_64PKyyQ-34" value="T35C220317" style="text;strokeColor=none;fillColor=none;align=left;verticalAlign=middle;spacingLeft=4;spacingRight=4;overflow=hidden;points=[[0,0.5],[1,0.5]];portConstraint=eastwest;rotatable=0;whiteSpace=wrap;html=1;" vertex="1" parent="oFuke4j55mWS_64PKyyQ-31">
          <mxGeometry y="60" width="90" height="30" as="geometry" />
        </mxCell>
        <mxCell id="oFuke4j55mWS_64PKyyQ-33" value="T36C220317" style="text;strokeColor=none;fillColor=none;align=left;verticalAlign=middle;spacingLeft=4;spacingRight=4;overflow=hidden;points=[[0,0.5],[1,0.5]];portConstraint=eastwest;rotatable=0;whiteSpace=wrap;html=1;" vertex="1" parent="oFuke4j55mWS_64PKyyQ-31">
          <mxGeometry y="90" width="90" height="30" as="geometry" />
        </mxCell>
        <mxCell id="oFuke4j55mWS_64PKyyQ-35" value="ticker" style="swimlane;fontStyle=0;childLayout=stackLayout;horizontal=1;startSize=30;horizontalStack=0;resizeParent=1;resizeParentMax=0;resizeLast=0;collapsible=1;marginBottom=0;whiteSpace=wrap;html=1;fillColor=#dae8fc;strokeColor=#6c8ebf;" vertex="1" parent="oFuke4j55mWS_64PKyyQ-26">
          <mxGeometry x="400" y="30" width="50" height="120" as="geometry" />
        </mxCell>
        <mxCell id="oFuke4j55mWS_64PKyyQ-36" value="T" style="text;strokeColor=none;fillColor=none;align=left;verticalAlign=middle;spacingLeft=4;spacingRight=4;overflow=hidden;points=[[0,0.5],[1,0.5]];portConstraint=eastwest;rotatable=0;whiteSpace=wrap;html=1;" vertex="1" parent="oFuke4j55mWS_64PKyyQ-35">
          <mxGeometry y="30" width="50" height="30" as="geometry" />
        </mxCell>
        <mxCell id="oFuke4j55mWS_64PKyyQ-37" value="T" style="text;strokeColor=none;fillColor=none;align=left;verticalAlign=middle;spacingLeft=4;spacingRight=4;overflow=hidden;points=[[0,0.5],[1,0.5]];portConstraint=eastwest;rotatable=0;whiteSpace=wrap;html=1;" vertex="1" parent="oFuke4j55mWS_64PKyyQ-35">
          <mxGeometry y="60" width="50" height="30" as="geometry" />
        </mxCell>
        <mxCell id="oFuke4j55mWS_64PKyyQ-38" value="T" style="text;strokeColor=none;fillColor=none;align=left;verticalAlign=middle;spacingLeft=4;spacingRight=4;overflow=hidden;points=[[0,0.5],[1,0.5]];portConstraint=eastwest;rotatable=0;whiteSpace=wrap;html=1;" vertex="1" parent="oFuke4j55mWS_64PKyyQ-35">
          <mxGeometry y="90" width="50" height="30" as="geometry" />
        </mxCell>
        <mxCell id="oFuke4j55mWS_64PKyyQ-39" value="pcflag" style="swimlane;fontStyle=0;childLayout=stackLayout;horizontal=1;startSize=30;horizontalStack=0;resizeParent=1;resizeParentMax=0;resizeLast=0;collapsible=1;marginBottom=0;whiteSpace=wrap;html=1;fillColor=#dae8fc;strokeColor=#6c8ebf;" vertex="1" parent="oFuke4j55mWS_64PKyyQ-26">
          <mxGeometry x="450" y="30" width="50" height="120" as="geometry" />
        </mxCell>
        <mxCell id="oFuke4j55mWS_64PKyyQ-40" value="0" style="text;strokeColor=none;fillColor=none;align=left;verticalAlign=middle;spacingLeft=4;spacingRight=4;overflow=hidden;points=[[0,0.5],[1,0.5]];portConstraint=eastwest;rotatable=0;whiteSpace=wrap;html=1;" vertex="1" parent="oFuke4j55mWS_64PKyyQ-39">
          <mxGeometry y="30" width="50" height="30" as="geometry" />
        </mxCell>
        <mxCell id="oFuke4j55mWS_64PKyyQ-41" value="0" style="text;strokeColor=none;fillColor=none;align=left;verticalAlign=middle;spacingLeft=4;spacingRight=4;overflow=hidden;points=[[0,0.5],[1,0.5]];portConstraint=eastwest;rotatable=0;whiteSpace=wrap;html=1;" vertex="1" parent="oFuke4j55mWS_64PKyyQ-39">
          <mxGeometry y="60" width="50" height="30" as="geometry" />
        </mxCell>
        <mxCell id="oFuke4j55mWS_64PKyyQ-42" value="0" style="text;strokeColor=none;fillColor=none;align=left;verticalAlign=middle;spacingLeft=4;spacingRight=4;overflow=hidden;points=[[0,0.5],[1,0.5]];portConstraint=eastwest;rotatable=0;whiteSpace=wrap;html=1;" vertex="1" parent="oFuke4j55mWS_64PKyyQ-39">
          <mxGeometry y="90" width="50" height="30" as="geometry" />
        </mxCell>
        <mxCell id="oFuke4j55mWS_64PKyyQ-47" value="k" style="swimlane;fontStyle=0;childLayout=stackLayout;horizontal=1;startSize=30;horizontalStack=0;resizeParent=1;resizeParentMax=0;resizeLast=0;collapsible=1;marginBottom=0;whiteSpace=wrap;html=1;fillColor=#dae8fc;strokeColor=#6c8ebf;" vertex="1" parent="oFuke4j55mWS_64PKyyQ-26">
          <mxGeometry x="500" y="30" width="30" height="120" as="geometry" />
        </mxCell>
        <mxCell id="oFuke4j55mWS_64PKyyQ-48" value="34" style="text;strokeColor=none;fillColor=none;align=left;verticalAlign=middle;spacingLeft=4;spacingRight=4;overflow=hidden;points=[[0,0.5],[1,0.5]];portConstraint=eastwest;rotatable=0;whiteSpace=wrap;html=1;" vertex="1" parent="oFuke4j55mWS_64PKyyQ-47">
          <mxGeometry y="30" width="30" height="30" as="geometry" />
        </mxCell>
        <mxCell id="oFuke4j55mWS_64PKyyQ-49" value="35" style="text;strokeColor=none;fillColor=none;align=left;verticalAlign=middle;spacingLeft=4;spacingRight=4;overflow=hidden;points=[[0,0.5],[1,0.5]];portConstraint=eastwest;rotatable=0;whiteSpace=wrap;html=1;" vertex="1" parent="oFuke4j55mWS_64PKyyQ-47">
          <mxGeometry y="60" width="30" height="30" as="geometry" />
        </mxCell>
        <mxCell id="oFuke4j55mWS_64PKyyQ-50" value="36" style="text;strokeColor=none;fillColor=none;align=left;verticalAlign=middle;spacingLeft=4;spacingRight=4;overflow=hidden;points=[[0,0.5],[1,0.5]];portConstraint=eastwest;rotatable=0;whiteSpace=wrap;html=1;" vertex="1" parent="oFuke4j55mWS_64PKyyQ-47">
          <mxGeometry y="90" width="30" height="30" as="geometry" />
        </mxCell>
        <mxCell id="oFuke4j55mWS_64PKyyQ-55" value="dte" style="swimlane;fontStyle=0;childLayout=stackLayout;horizontal=1;startSize=30;horizontalStack=0;resizeParent=1;resizeParentMax=0;resizeLast=0;collapsible=1;marginBottom=0;whiteSpace=wrap;html=1;fillColor=#dae8fc;strokeColor=#6c8ebf;" vertex="1" parent="oFuke4j55mWS_64PKyyQ-26">
          <mxGeometry x="530" y="30" width="40" height="120" as="geometry" />
        </mxCell>
        <mxCell id="oFuke4j55mWS_64PKyyQ-56" value="78" style="text;strokeColor=none;fillColor=none;align=left;verticalAlign=middle;spacingLeft=4;spacingRight=4;overflow=hidden;points=[[0,0.5],[1,0.5]];portConstraint=eastwest;rotatable=0;whiteSpace=wrap;html=1;" vertex="1" parent="oFuke4j55mWS_64PKyyQ-55">
          <mxGeometry y="30" width="40" height="30" as="geometry" />
        </mxCell>
        <mxCell id="oFuke4j55mWS_64PKyyQ-57" value="78" style="text;strokeColor=none;fillColor=none;align=left;verticalAlign=middle;spacingLeft=4;spacingRight=4;overflow=hidden;points=[[0,0.5],[1,0.5]];portConstraint=eastwest;rotatable=0;whiteSpace=wrap;html=1;" vertex="1" parent="oFuke4j55mWS_64PKyyQ-55">
          <mxGeometry y="60" width="40" height="30" as="geometry" />
        </mxCell>
        <mxCell id="oFuke4j55mWS_64PKyyQ-58" value="78" style="text;strokeColor=none;fillColor=none;align=left;verticalAlign=middle;spacingLeft=4;spacingRight=4;overflow=hidden;points=[[0,0.5],[1,0.5]];portConstraint=eastwest;rotatable=0;whiteSpace=wrap;html=1;" vertex="1" parent="oFuke4j55mWS_64PKyyQ-55">
          <mxGeometry y="90" width="40" height="30" as="geometry" />
        </mxCell>
        <mxCell id="oFuke4j55mWS_64PKyyQ-59" value="expirationdate" style="swimlane;fontStyle=0;childLayout=stackLayout;horizontal=1;startSize=30;horizontalStack=0;resizeParent=1;resizeParentMax=0;resizeLast=0;collapsible=1;marginBottom=0;whiteSpace=wrap;html=1;fillColor=#dae8fc;strokeColor=#6c8ebf;" vertex="1" parent="oFuke4j55mWS_64PKyyQ-26">
          <mxGeometry x="570" y="30" width="110" height="120" as="geometry" />
        </mxCell>
        <mxCell id="oFuke4j55mWS_64PKyyQ-60" value="date(2022,03,17)" style="text;strokeColor=none;fillColor=none;align=left;verticalAlign=middle;spacingLeft=4;spacingRight=4;overflow=hidden;points=[[0,0.5],[1,0.5]];portConstraint=eastwest;rotatable=0;whiteSpace=wrap;html=1;" vertex="1" parent="oFuke4j55mWS_64PKyyQ-59">
          <mxGeometry y="30" width="110" height="30" as="geometry" />
        </mxCell>
        <mxCell id="oFuke4j55mWS_64PKyyQ-61" value="date(2022,03,17)" style="text;strokeColor=none;fillColor=none;align=left;verticalAlign=middle;spacingLeft=4;spacingRight=4;overflow=hidden;points=[[0,0.5],[1,0.5]];portConstraint=eastwest;rotatable=0;whiteSpace=wrap;html=1;" vertex="1" parent="oFuke4j55mWS_64PKyyQ-59">
          <mxGeometry y="60" width="110" height="30" as="geometry" />
        </mxCell>
        <mxCell id="oFuke4j55mWS_64PKyyQ-62" value="date(2022,03,17)" style="text;strokeColor=none;fillColor=none;align=left;verticalAlign=middle;spacingLeft=4;spacingRight=4;overflow=hidden;points=[[0,0.5],[1,0.5]];portConstraint=eastwest;rotatable=0;whiteSpace=wrap;html=1;" vertex="1" parent="oFuke4j55mWS_64PKyyQ-59">
          <mxGeometry y="90" width="110" height="30" as="geometry" />
        </mxCell>
        <mxCell id="oFuke4j55mWS_64PKyyQ-63" value="bid" style="swimlane;fontStyle=0;childLayout=stackLayout;horizontal=1;startSize=30;horizontalStack=0;resizeParent=1;resizeParentMax=0;resizeLast=0;collapsible=1;marginBottom=0;whiteSpace=wrap;html=1;fillColor=#dae8fc;strokeColor=#6c8ebf;" vertex="1" parent="oFuke4j55mWS_64PKyyQ-26">
          <mxGeometry x="680" y="30" width="50" height="120" as="geometry" />
        </mxCell>
        <mxCell id="oFuke4j55mWS_64PKyyQ-64" value="3.24" style="text;strokeColor=none;fillColor=none;align=left;verticalAlign=middle;spacingLeft=4;spacingRight=4;overflow=hidden;points=[[0,0.5],[1,0.5]];portConstraint=eastwest;rotatable=0;whiteSpace=wrap;html=1;" vertex="1" parent="oFuke4j55mWS_64PKyyQ-63">
          <mxGeometry y="30" width="50" height="30" as="geometry" />
        </mxCell>
        <mxCell id="oFuke4j55mWS_64PKyyQ-65" value="2.45" style="text;strokeColor=none;fillColor=none;align=left;verticalAlign=middle;spacingLeft=4;spacingRight=4;overflow=hidden;points=[[0,0.5],[1,0.5]];portConstraint=eastwest;rotatable=0;whiteSpace=wrap;html=1;" vertex="1" parent="oFuke4j55mWS_64PKyyQ-63">
          <mxGeometry y="60" width="50" height="30" as="geometry" />
        </mxCell>
        <mxCell id="oFuke4j55mWS_64PKyyQ-66" value="1.67" style="text;strokeColor=none;fillColor=none;align=left;verticalAlign=middle;spacingLeft=4;spacingRight=4;overflow=hidden;points=[[0,0.5],[1,0.5]];portConstraint=eastwest;rotatable=0;whiteSpace=wrap;html=1;" vertex="1" parent="oFuke4j55mWS_64PKyyQ-63">
          <mxGeometry y="90" width="50" height="30" as="geometry" />
        </mxCell>
        <mxCell id="oFuke4j55mWS_64PKyyQ-67" value="ask" style="swimlane;fontStyle=0;childLayout=stackLayout;horizontal=1;startSize=30;horizontalStack=0;resizeParent=1;resizeParentMax=0;resizeLast=0;collapsible=1;marginBottom=0;whiteSpace=wrap;html=1;fillColor=#dae8fc;strokeColor=#6c8ebf;" vertex="1" parent="oFuke4j55mWS_64PKyyQ-26">
          <mxGeometry x="730" y="30" width="50" height="120" as="geometry" />
        </mxCell>
        <mxCell id="oFuke4j55mWS_64PKyyQ-69" value="3.31" style="text;strokeColor=none;fillColor=none;align=left;verticalAlign=middle;spacingLeft=4;spacingRight=4;overflow=hidden;points=[[0,0.5],[1,0.5]];portConstraint=eastwest;rotatable=0;whiteSpace=wrap;html=1;" vertex="1" parent="oFuke4j55mWS_64PKyyQ-67">
          <mxGeometry y="30" width="50" height="30" as="geometry" />
        </mxCell>
        <mxCell id="oFuke4j55mWS_64PKyyQ-68" value="2.50" style="text;strokeColor=none;fillColor=none;align=left;verticalAlign=middle;spacingLeft=4;spacingRight=4;overflow=hidden;points=[[0,0.5],[1,0.5]];portConstraint=eastwest;rotatable=0;whiteSpace=wrap;html=1;" vertex="1" parent="oFuke4j55mWS_64PKyyQ-67">
          <mxGeometry y="60" width="50" height="30" as="geometry" />
        </mxCell>
        <mxCell id="oFuke4j55mWS_64PKyyQ-70" value="1.75" style="text;strokeColor=none;fillColor=none;align=left;verticalAlign=middle;spacingLeft=4;spacingRight=4;overflow=hidden;points=[[0,0.5],[1,0.5]];portConstraint=eastwest;rotatable=0;whiteSpace=wrap;html=1;" vertex="1" parent="oFuke4j55mWS_64PKyyQ-67">
          <mxGeometry y="90" width="50" height="30" as="geometry" />
        </mxCell>
        <mxCell id="oFuke4j55mWS_64PKyyQ-72" value="bid_size" style="swimlane;fontStyle=0;childLayout=stackLayout;horizontal=1;startSize=30;horizontalStack=0;resizeParent=1;resizeParentMax=0;resizeLast=0;collapsible=1;marginBottom=0;whiteSpace=wrap;html=1;fillColor=#dae8fc;strokeColor=#6c8ebf;" vertex="1" parent="oFuke4j55mWS_64PKyyQ-26">
          <mxGeometry x="780" y="30" width="60" height="120" as="geometry" />
        </mxCell>
        <mxCell id="oFuke4j55mWS_64PKyyQ-73" value="5" style="text;strokeColor=none;fillColor=none;align=left;verticalAlign=middle;spacingLeft=4;spacingRight=4;overflow=hidden;points=[[0,0.5],[1,0.5]];portConstraint=eastwest;rotatable=0;whiteSpace=wrap;html=1;" vertex="1" parent="oFuke4j55mWS_64PKyyQ-72">
          <mxGeometry y="30" width="60" height="30" as="geometry" />
        </mxCell>
        <mxCell id="oFuke4j55mWS_64PKyyQ-74" value="3" style="text;strokeColor=none;fillColor=none;align=left;verticalAlign=middle;spacingLeft=4;spacingRight=4;overflow=hidden;points=[[0,0.5],[1,0.5]];portConstraint=eastwest;rotatable=0;whiteSpace=wrap;html=1;" vertex="1" parent="oFuke4j55mWS_64PKyyQ-72">
          <mxGeometry y="60" width="60" height="30" as="geometry" />
        </mxCell>
        <mxCell id="oFuke4j55mWS_64PKyyQ-75" value="4" style="text;strokeColor=none;fillColor=none;align=left;verticalAlign=middle;spacingLeft=4;spacingRight=4;overflow=hidden;points=[[0,0.5],[1,0.5]];portConstraint=eastwest;rotatable=0;whiteSpace=wrap;html=1;" vertex="1" parent="oFuke4j55mWS_64PKyyQ-72">
          <mxGeometry y="90" width="60" height="30" as="geometry" />
        </mxCell>
        <mxCell id="oFuke4j55mWS_64PKyyQ-76" value="ask_size" style="swimlane;fontStyle=0;childLayout=stackLayout;horizontal=1;startSize=30;horizontalStack=0;resizeParent=1;resizeParentMax=0;resizeLast=0;collapsible=1;marginBottom=0;whiteSpace=wrap;html=1;fillColor=#dae8fc;strokeColor=#6c8ebf;" vertex="1" parent="oFuke4j55mWS_64PKyyQ-26">
          <mxGeometry x="840" y="30" width="60" height="120" as="geometry" />
        </mxCell>
        <mxCell id="oFuke4j55mWS_64PKyyQ-77" value="3" style="text;strokeColor=none;fillColor=none;align=left;verticalAlign=middle;spacingLeft=4;spacingRight=4;overflow=hidden;points=[[0,0.5],[1,0.5]];portConstraint=eastwest;rotatable=0;whiteSpace=wrap;html=1;" vertex="1" parent="oFuke4j55mWS_64PKyyQ-76">
          <mxGeometry y="30" width="60" height="30" as="geometry" />
        </mxCell>
        <mxCell id="oFuke4j55mWS_64PKyyQ-78" value="3" style="text;strokeColor=none;fillColor=none;align=left;verticalAlign=middle;spacingLeft=4;spacingRight=4;overflow=hidden;points=[[0,0.5],[1,0.5]];portConstraint=eastwest;rotatable=0;whiteSpace=wrap;html=1;" vertex="1" parent="oFuke4j55mWS_64PKyyQ-76">
          <mxGeometry y="60" width="60" height="30" as="geometry" />
        </mxCell>
        <mxCell id="oFuke4j55mWS_64PKyyQ-79" value="1" style="text;strokeColor=none;fillColor=none;align=left;verticalAlign=middle;spacingLeft=4;spacingRight=4;overflow=hidden;points=[[0,0.5],[1,0.5]];portConstraint=eastwest;rotatable=0;whiteSpace=wrap;html=1;" vertex="1" parent="oFuke4j55mWS_64PKyyQ-76">
          <mxGeometry y="90" width="60" height="30" as="geometry" />
        </mxCell>
        <mxCell id="oFuke4j55mWS_64PKyyQ-80" value="openinterest" style="swimlane;fontStyle=0;childLayout=stackLayout;horizontal=1;startSize=30;horizontalStack=0;resizeParent=1;resizeParentMax=0;resizeLast=0;collapsible=1;marginBottom=0;whiteSpace=wrap;html=1;fillColor=#dae8fc;strokeColor=#6c8ebf;" vertex="1" parent="oFuke4j55mWS_64PKyyQ-26">
          <mxGeometry x="900" y="30" width="100" height="120" as="geometry" />
        </mxCell>
        <mxCell id="oFuke4j55mWS_64PKyyQ-81" value="4500" style="text;strokeColor=none;fillColor=none;align=left;verticalAlign=middle;spacingLeft=4;spacingRight=4;overflow=hidden;points=[[0,0.5],[1,0.5]];portConstraint=eastwest;rotatable=0;whiteSpace=wrap;html=1;" vertex="1" parent="oFuke4j55mWS_64PKyyQ-80">
          <mxGeometry y="30" width="100" height="30" as="geometry" />
        </mxCell>
        <mxCell id="oFuke4j55mWS_64PKyyQ-82" value="300" style="text;strokeColor=none;fillColor=none;align=left;verticalAlign=middle;spacingLeft=4;spacingRight=4;overflow=hidden;points=[[0,0.5],[1,0.5]];portConstraint=eastwest;rotatable=0;whiteSpace=wrap;html=1;" vertex="1" parent="oFuke4j55mWS_64PKyyQ-80">
          <mxGeometry y="60" width="100" height="30" as="geometry" />
        </mxCell>
        <mxCell id="oFuke4j55mWS_64PKyyQ-83" value="200" style="text;strokeColor=none;fillColor=none;align=left;verticalAlign=middle;spacingLeft=4;spacingRight=4;overflow=hidden;points=[[0,0.5],[1,0.5]];portConstraint=eastwest;rotatable=0;whiteSpace=wrap;html=1;" vertex="1" parent="oFuke4j55mWS_64PKyyQ-80">
          <mxGeometry y="90" width="100" height="30" as="geometry" />
        </mxCell>
        <mxCell id="oFuke4j55mWS_64PKyyQ-84" value="volume" style="swimlane;fontStyle=0;childLayout=stackLayout;horizontal=1;startSize=30;horizontalStack=0;resizeParent=1;resizeParentMax=0;resizeLast=0;collapsible=1;marginBottom=0;whiteSpace=wrap;html=1;fillColor=#dae8fc;strokeColor=#6c8ebf;" vertex="1" parent="oFuke4j55mWS_64PKyyQ-26">
          <mxGeometry x="1000" y="30" width="140" height="120" as="geometry" />
        </mxCell>
        <mxCell id="oFuke4j55mWS_64PKyyQ-85" value="200" style="text;strokeColor=none;fillColor=none;align=left;verticalAlign=middle;spacingLeft=4;spacingRight=4;overflow=hidden;points=[[0,0.5],[1,0.5]];portConstraint=eastwest;rotatable=0;whiteSpace=wrap;html=1;" vertex="1" parent="oFuke4j55mWS_64PKyyQ-84">
          <mxGeometry y="30" width="140" height="30" as="geometry" />
        </mxCell>
        <mxCell id="oFuke4j55mWS_64PKyyQ-86" value="0" style="text;strokeColor=none;fillColor=none;align=left;verticalAlign=middle;spacingLeft=4;spacingRight=4;overflow=hidden;points=[[0,0.5],[1,0.5]];portConstraint=eastwest;rotatable=0;whiteSpace=wrap;html=1;" vertex="1" parent="oFuke4j55mWS_64PKyyQ-84">
          <mxGeometry y="60" width="140" height="30" as="geometry" />
        </mxCell>
        <mxCell id="oFuke4j55mWS_64PKyyQ-87" value="0" style="text;strokeColor=none;fillColor=none;align=left;verticalAlign=middle;spacingLeft=4;spacingRight=4;overflow=hidden;points=[[0,0.5],[1,0.5]];portConstraint=eastwest;rotatable=0;whiteSpace=wrap;html=1;" vertex="1" parent="oFuke4j55mWS_64PKyyQ-84">
          <mxGeometry y="90" width="140" height="30" as="geometry" />
        </mxCell>
        <mxCell id="oFuke4j55mWS_64PKyyQ-43" value="date_eod" style="swimlane;fontStyle=0;childLayout=stackLayout;horizontal=1;startSize=30;horizontalStack=0;resizeParent=1;resizeParentMax=0;resizeLast=0;collapsible=1;marginBottom=0;whiteSpace=wrap;html=1;fillColor=#dae8fc;strokeColor=#6c8ebf;" vertex="1" parent="1">
          <mxGeometry x="50" y="310" width="110" height="120" as="geometry" />
        </mxCell>
        <mxCell id="oFuke4j55mWS_64PKyyQ-44" value="date(2022,01,01)" style="text;strokeColor=none;fillColor=none;align=left;verticalAlign=middle;spacingLeft=4;spacingRight=4;overflow=hidden;points=[[0,0.5],[1,0.5]];portConstraint=eastwest;rotatable=0;whiteSpace=wrap;html=1;" vertex="1" parent="oFuke4j55mWS_64PKyyQ-43">
          <mxGeometry y="30" width="110" height="30" as="geometry" />
        </mxCell>
        <mxCell id="oFuke4j55mWS_64PKyyQ-45" value="date(2022,01,01)" style="text;strokeColor=none;fillColor=none;align=left;verticalAlign=middle;spacingLeft=4;spacingRight=4;overflow=hidden;points=[[0,0.5],[1,0.5]];portConstraint=eastwest;rotatable=0;whiteSpace=wrap;html=1;" vertex="1" parent="oFuke4j55mWS_64PKyyQ-43">
          <mxGeometry y="60" width="110" height="30" as="geometry" />
        </mxCell>
        <mxCell id="oFuke4j55mWS_64PKyyQ-46" value="date(2022,01,01)" style="text;strokeColor=none;fillColor=none;align=left;verticalAlign=middle;spacingLeft=4;spacingRight=4;overflow=hidden;points=[[0,0.5],[1,0.5]];portConstraint=eastwest;rotatable=0;whiteSpace=wrap;html=1;" vertex="1" parent="oFuke4j55mWS_64PKyyQ-43">
          <mxGeometry y="90" width="110" height="30" as="geometry" />
        </mxCell>
        <mxCell id="oFuke4j55mWS_64PKyyQ-118" style="edgeStyle=orthogonalEdgeStyle;rounded=0;orthogonalLoop=1;jettySize=auto;html=1;exitX=1;exitY=0.25;exitDx=0;exitDy=0;" edge="1" parent="1" source="oFuke4j55mWS_64PKyyQ-88" target="oFuke4j55mWS_64PKyyQ-111">
          <mxGeometry relative="1" as="geometry" />
        </mxCell>
        <mxCell id="oFuke4j55mWS_64PKyyQ-88" value="OneTicker" style="swimlane;fontStyle=1;align=center;verticalAlign=top;childLayout=stackLayout;horizontal=1;startSize=26;horizontalStack=0;resizeParent=1;resizeParentMax=0;resizeLast=0;collapsible=1;marginBottom=0;rounded=0;shadow=0;glass=0;labelBackgroundColor=none;labelBorderColor=none;sketch=0;strokeColor=#005700;fillColor=#008a00;fontColor=#ffffff;" vertex="1" parent="1">
          <mxGeometry x="1360" y="40" width="600" height="268" as="geometry" />
        </mxCell>
        <mxCell id="oFuke4j55mWS_64PKyyQ-89" value="ticker: str" style="text;strokeColor=none;fillColor=none;align=left;verticalAlign=top;spacingLeft=4;spacingRight=4;overflow=hidden;rotatable=0;points=[[0,0.5],[1,0.5]];portConstraint=eastwest;rounded=0;shadow=0;glass=0;labelBackgroundColor=none;labelBorderColor=none;sketch=0;" vertex="1" parent="oFuke4j55mWS_64PKyyQ-88">
          <mxGeometry y="26" width="600" height="26" as="geometry" />
        </mxCell>
        <mxCell id="oFuke4j55mWS_64PKyyQ-100" value="..." style="text;strokeColor=none;fillColor=none;align=left;verticalAlign=top;spacingLeft=4;spacingRight=4;overflow=hidden;rotatable=0;points=[[0,0.5],[1,0.5]];portConstraint=eastwest;rounded=0;shadow=0;glass=0;labelBackgroundColor=none;labelBorderColor=none;sketch=0;" vertex="1" parent="oFuke4j55mWS_64PKyyQ-88">
          <mxGeometry y="52" width="600" height="26" as="geometry" />
        </mxCell>
        <mxCell id="oFuke4j55mWS_64PKyyQ-90" value="" style="line;strokeWidth=1;fillColor=none;align=left;verticalAlign=middle;spacingTop=-1;spacingLeft=3;spacingRight=3;rotatable=0;labelPosition=right;points=[];portConstraint=eastwest;strokeColor=inherit;rounded=0;shadow=0;glass=0;labelBackgroundColor=none;labelBorderColor=none;sketch=0;" vertex="1" parent="oFuke4j55mWS_64PKyyQ-88">
          <mxGeometry y="78" width="600" height="8" as="geometry" />
        </mxCell>
        <mxCell id="oFuke4j55mWS_64PKyyQ-91" value="+ __init__(self, tickername:str, tickertimeseries:pd.DataFrame, optionchaintimeseries:pd.DataFrame): " style="text;strokeColor=none;fillColor=none;align=left;verticalAlign=top;spacingLeft=4;spacingRight=4;overflow=hidden;rotatable=0;points=[[0,0.5],[1,0.5]];portConstraint=eastwest;rounded=0;shadow=0;glass=0;labelBackgroundColor=none;labelBorderColor=none;sketch=0;" vertex="1" parent="oFuke4j55mWS_64PKyyQ-88">
          <mxGeometry y="86" width="600" height="26" as="geometry" />
        </mxCell>
        <mxCell id="oFuke4j55mWS_64PKyyQ-95" value="+ resettimer(self): " style="text;strokeColor=none;fillColor=none;align=left;verticalAlign=top;spacingLeft=4;spacingRight=4;overflow=hidden;rotatable=0;points=[[0,0.5],[1,0.5]];portConstraint=eastwest;rounded=0;shadow=0;glass=0;labelBackgroundColor=none;labelBorderColor=none;sketch=0;" vertex="1" parent="oFuke4j55mWS_64PKyyQ-88">
          <mxGeometry y="112" width="600" height="26" as="geometry" />
        </mxCell>
        <mxCell id="oFuke4j55mWS_64PKyyQ-96" value="+ settime(self, currentdatetime:pd.Timestamp): " style="text;strokeColor=none;fillColor=none;align=left;verticalAlign=top;spacingLeft=4;spacingRight=4;overflow=hidden;rotatable=0;points=[[0,0.5],[1,0.5]];portConstraint=eastwest;rounded=0;shadow=0;glass=0;labelBackgroundColor=none;labelBorderColor=none;sketch=0;" vertex="1" parent="oFuke4j55mWS_64PKyyQ-88">
          <mxGeometry y="138" width="600" height="26" as="geometry" />
        </mxCell>
        <mxCell id="oFuke4j55mWS_64PKyyQ-97" value="+ getstockdata(self): " style="text;strokeColor=none;fillColor=none;align=left;verticalAlign=top;spacingLeft=4;spacingRight=4;overflow=hidden;rotatable=0;points=[[0,0.5],[1,0.5]];portConstraint=eastwest;rounded=0;shadow=0;glass=0;labelBackgroundColor=none;labelBorderColor=none;sketch=0;" vertex="1" parent="oFuke4j55mWS_64PKyyQ-88">
          <mxGeometry y="164" width="600" height="26" as="geometry" />
        </mxCell>
        <mxCell id="oFuke4j55mWS_64PKyyQ-98" value="+ getcurrentstockcandle(self): " style="text;strokeColor=none;fillColor=none;align=left;verticalAlign=top;spacingLeft=4;spacingRight=4;overflow=hidden;rotatable=0;points=[[0,0.5],[1,0.5]];portConstraint=eastwest;rounded=0;shadow=0;glass=0;labelBackgroundColor=none;labelBorderColor=none;sketch=0;" vertex="1" parent="oFuke4j55mWS_64PKyyQ-88">
          <mxGeometry y="190" width="600" height="26" as="geometry" />
        </mxCell>
        <mxCell id="oFuke4j55mWS_64PKyyQ-99" value="+ getoptionsymbolsnapshot(self, symbol): " style="text;strokeColor=none;fillColor=none;align=left;verticalAlign=top;spacingLeft=4;spacingRight=4;overflow=hidden;rotatable=0;points=[[0,0.5],[1,0.5]];portConstraint=eastwest;rounded=0;shadow=0;glass=0;labelBackgroundColor=none;labelBorderColor=none;sketch=0;" vertex="1" parent="oFuke4j55mWS_64PKyyQ-88">
          <mxGeometry y="216" width="600" height="26" as="geometry" />
        </mxCell>
        <mxCell id="oFuke4j55mWS_64PKyyQ-106" value="..." style="text;strokeColor=none;fillColor=none;align=left;verticalAlign=top;spacingLeft=4;spacingRight=4;overflow=hidden;rotatable=0;points=[[0,0.5],[1,0.5]];portConstraint=eastwest;rounded=0;shadow=0;glass=0;labelBackgroundColor=none;labelBorderColor=none;sketch=0;" vertex="1" parent="oFuke4j55mWS_64PKyyQ-88">
          <mxGeometry y="242" width="600" height="26" as="geometry" />
        </mxCell>
        <mxCell id="oFuke4j55mWS_64PKyyQ-107" value="Market" style="swimlane;fontStyle=1;align=center;verticalAlign=top;childLayout=stackLayout;horizontal=1;startSize=26;horizontalStack=0;resizeParent=1;resizeParentMax=0;resizeLast=0;collapsible=1;marginBottom=0;rounded=0;shadow=0;glass=0;labelBackgroundColor=none;labelBorderColor=none;sketch=0;strokeColor=#005700;fillColor=#008a00;fontColor=#ffffff;" vertex="1" parent="1">
          <mxGeometry x="2040" y="40" width="600" height="190" as="geometry" />
        </mxCell>
        <mxCell id="oFuke4j55mWS_64PKyyQ-108" value="tickerlist: list" style="text;strokeColor=none;fillColor=none;align=left;verticalAlign=top;spacingLeft=4;spacingRight=4;overflow=hidden;rotatable=0;points=[[0,0.5],[1,0.5]];portConstraint=eastwest;rounded=0;shadow=0;glass=0;labelBackgroundColor=none;labelBorderColor=none;sketch=0;" vertex="1" parent="oFuke4j55mWS_64PKyyQ-107">
          <mxGeometry y="26" width="600" height="26" as="geometry" />
        </mxCell>
        <mxCell id="oFuke4j55mWS_64PKyyQ-109" value="tickernames: list[str]" style="text;strokeColor=none;fillColor=none;align=left;verticalAlign=top;spacingLeft=4;spacingRight=4;overflow=hidden;rotatable=0;points=[[0,0.5],[1,0.5]];portConstraint=eastwest;rounded=0;shadow=0;glass=0;labelBackgroundColor=none;labelBorderColor=none;sketch=0;" vertex="1" parent="oFuke4j55mWS_64PKyyQ-107">
          <mxGeometry y="52" width="600" height="26" as="geometry" />
        </mxCell>
        <mxCell id="oFuke4j55mWS_64PKyyQ-110" value="" style="line;strokeWidth=1;fillColor=none;align=left;verticalAlign=middle;spacingTop=-1;spacingLeft=3;spacingRight=3;rotatable=0;labelPosition=right;points=[];portConstraint=eastwest;strokeColor=inherit;rounded=0;shadow=0;glass=0;labelBackgroundColor=none;labelBorderColor=none;sketch=0;" vertex="1" parent="oFuke4j55mWS_64PKyyQ-107">
          <mxGeometry y="78" width="600" height="8" as="geometry" />
        </mxCell>
        <mxCell id="oFuke4j55mWS_64PKyyQ-111" value="+ __init__(self, tickerlist:list[OneTicker], tickernames:list[str]): " style="text;strokeColor=none;fillColor=none;align=left;verticalAlign=top;spacingLeft=4;spacingRight=4;overflow=hidden;rotatable=0;points=[[0,0.5],[1,0.5]];portConstraint=eastwest;rounded=0;shadow=0;glass=0;labelBackgroundColor=none;labelBorderColor=none;sketch=0;" vertex="1" parent="oFuke4j55mWS_64PKyyQ-107">
          <mxGeometry y="86" width="600" height="26" as="geometry" />
        </mxCell>
        <mxCell id="oFuke4j55mWS_64PKyyQ-112" value="+ priming: " style="text;strokeColor=none;fillColor=none;align=left;verticalAlign=top;spacingLeft=4;spacingRight=4;overflow=hidden;rotatable=0;points=[[0,0.5],[1,0.5]];portConstraint=eastwest;rounded=0;shadow=0;glass=0;labelBackgroundColor=none;labelBorderColor=none;sketch=0;" vertex="1" parent="oFuke4j55mWS_64PKyyQ-107">
          <mxGeometry y="112" width="600" height="26" as="geometry" />
        </mxCell>
        <mxCell id="oFuke4j55mWS_64PKyyQ-113" value="+ timepass(self, currentdatetime:pd.Timestamp): " style="text;strokeColor=none;fillColor=none;align=left;verticalAlign=top;spacingLeft=4;spacingRight=4;overflow=hidden;rotatable=0;points=[[0,0.5],[1,0.5]];portConstraint=eastwest;rounded=0;shadow=0;glass=0;labelBackgroundColor=none;labelBorderColor=none;sketch=0;" vertex="1" parent="oFuke4j55mWS_64PKyyQ-107">
          <mxGeometry y="138" width="600" height="26" as="geometry" />
        </mxCell>
        <mxCell id="oFuke4j55mWS_64PKyyQ-117" value="..." style="text;strokeColor=none;fillColor=none;align=left;verticalAlign=top;spacingLeft=4;spacingRight=4;overflow=hidden;rotatable=0;points=[[0,0.5],[1,0.5]];portConstraint=eastwest;rounded=0;shadow=0;glass=0;labelBackgroundColor=none;labelBorderColor=none;sketch=0;" vertex="1" parent="oFuke4j55mWS_64PKyyQ-107">
          <mxGeometry y="164" width="600" height="26" as="geometry" />
        </mxCell>
      </root>
    </mxGraphModel>
  </diagram>
</mxfile>
